# xmcd
#
# Track frame offsets: 
#        150
#        35697
#        69982
#        94196
#        130026
#        159774
#        197098
#        220850
#
# Disc length: 3214 seconds
#
# Revision: 0
# Processed by: cddbd v1.5.2PL0 Copyright (c) Steve Scherf et al.
# Submitted via: ExactAudioCopyFreeDBPlugin 1.0
#
DISCID=660c8c08
DTITLE=Sonny Rhodes - Then and Now
DYEAR=2016
DGENRE=Blues
TTITLE0=Blues Is My Religion
TTITLE1=Put Your Shoe On The Other Foot
TTITLE2=Think
TTITLE3=My Jug And I
TTITLE4=You The One
TTITLE5=My Woman Has A Black Cat Bone
TTITLE6=Meet Me At The 10th Street Inn
TTITLE7=Shame On You
EXTD=
EXTT0=
EXTT1=
EXTT2=
EXTT3=
EXTT4=
EXTT5=
EXTT6=
EXTT7=
PLAYORDER=
